<svg width="388" height="298" viewBox="0 0 388 298" fill="none" xmlns="http://www.w3.org/2000/svg">
<path d="M89.3405 206.233L119.381 159.013L52.1046 116.251L17.3614 170.864L73.0073 206.233H89.3405Z" fill="#F0F0F0"/>
<path d="M131.91 220.964H57.4994V205.992H131.91V220.964ZM58.4658 219.998H130.944V206.958H58.4658V219.998Z" fill="#3F3D56"/>
<path d="M122.73 218.308C125.398 218.308 127.562 216.146 127.562 213.478C127.562 210.811 125.398 208.648 122.73 208.648C120.061 208.648 117.898 210.811 117.898 213.478C117.898 216.146 120.061 218.308 122.73 218.308Z" fill="#37B9E8"/>
<path d="M109.2 218.308C111.869 218.308 114.032 216.146 114.032 213.478C114.032 210.811 111.869 208.648 109.2 208.648C106.532 208.648 104.369 210.811 104.369 213.478C104.369 216.146 106.532 218.308 109.2 218.308Z" fill="#37B9E8"/>
<path d="M95.6712 218.308C98.3398 218.308 100.503 216.146 100.503 213.478C100.503 210.811 98.3398 208.648 95.6712 208.648C93.0027 208.648 90.8394 210.811 90.8394 213.478C90.8394 216.146 93.0027 218.308 95.6712 218.308Z" fill="#37B9E8"/>
<path d="M82.142 218.308C84.8105 218.308 86.9739 216.146 86.9739 213.478C86.9739 210.811 84.8105 208.648 82.142 208.648C79.4734 208.648 77.3101 210.811 77.3101 213.478C77.3101 216.146 79.4734 218.308 82.142 218.308Z" fill="#37B9E8"/>
<path d="M68.6127 218.308C71.2813 218.308 73.4446 216.146 73.4446 213.478C73.4446 210.811 71.2813 208.648 68.6127 208.648C65.9441 208.648 63.7808 210.811 63.7808 213.478C63.7808 216.146 65.9441 218.308 68.6127 218.308Z" fill="#37B9E8"/>
<path d="M220.334 54.577V17.8703H238.695V0H148.822V89.8347H225.649V81.0514C225.649 79.4141 225.971 77.7928 226.598 76.2801C227.225 74.7674 228.144 73.393 229.302 72.2352C230.46 71.0775 231.835 70.1591 233.349 69.5325C234.862 68.906 236.484 68.5835 238.122 68.5835H238.695V54.577H220.334Z" fill="#F0F0F0"/>
<path d="M319.87 231.831H259.955V244.389H319.87V231.831Z" fill="#37B9E8"/>
<path d="M332.917 170.01H244.976V181.601H332.917V170.01Z" fill="#F0F0F0"/>
<path d="M375.92 297.034H0V298H375.92V297.034Z" fill="#3F3D56"/>
<path d="M347.985 298H238.122C234.687 297.996 231.394 296.63 228.965 294.202C226.536 291.774 225.17 288.483 225.166 285.049V81.0514C225.17 77.6178 226.536 74.326 228.965 71.898C231.394 69.4701 234.687 68.1044 238.122 68.1005H347.985C351.42 68.1044 354.713 69.4701 357.142 71.898C359.571 74.326 360.938 77.6178 360.941 81.0514V285.049C360.937 288.483 359.571 291.774 357.142 294.202C354.713 296.63 351.42 297.996 347.985 298ZM238.122 69.0665C234.943 69.0701 231.896 70.3339 229.648 72.5807C227.4 74.8276 226.136 77.8739 226.132 81.0514V285.049C226.136 288.227 227.4 291.273 229.648 293.52C231.896 295.767 234.943 297.03 238.122 297.034H347.985C351.164 297.03 354.211 295.767 356.459 293.52C358.707 291.273 359.971 288.227 359.975 285.049V81.0514C359.971 77.8739 358.707 74.8276 356.459 72.5807C354.211 70.3339 351.164 69.0701 347.985 69.0665H238.122Z" fill="#3F3D56"/>
<path d="M280.007 77.7601C279.434 77.7601 278.874 77.5902 278.397 77.2718C277.92 76.9533 277.548 76.5007 277.329 75.9712C277.11 75.4417 277.052 74.859 277.164 74.2969C277.276 73.7348 277.552 73.2184 277.957 72.8131C278.363 72.4078 278.879 72.1318 279.442 72.02C280.004 71.9082 280.587 71.9656 281.117 72.1849C281.647 72.4043 282.099 72.7757 282.418 73.2522C282.737 73.7288 282.907 74.2891 282.907 74.8622C282.906 75.6305 282.6 76.3672 282.057 76.9104C281.513 77.4537 280.776 77.7593 280.007 77.7601ZM280.007 72.9303C279.625 72.9303 279.252 73.0436 278.934 73.2559C278.616 73.4682 278.368 73.7699 278.222 74.1229C278.076 74.4759 278.037 74.8644 278.112 75.2391C278.186 75.6139 278.37 75.9581 278.641 76.2283C278.911 76.4985 279.255 76.6825 279.63 76.757C280.005 76.8316 280.394 76.7933 280.747 76.6471C281.1 76.5009 281.402 76.2533 281.614 75.9356C281.827 75.6179 281.94 75.2443 281.94 74.8622C281.94 74.35 281.736 73.8589 281.374 73.4968C281.011 73.1346 280.52 72.9309 280.007 72.9303Z" fill="#3F3D56"/>
<path d="M308.516 74.3792H287.255V75.3452H308.516V74.3792Z" fill="#3F3D56"/>
<path d="M352.244 82.107V120.746C341.992 120.745 332.16 116.674 324.911 109.428C317.662 102.182 313.59 92.3544 313.589 82.107H352.244Z" fill="#37B9E8"/>
<path d="M352.727 284.96H233.38V81.624H352.727V284.96ZM234.346 283.994H351.761V82.5899H234.346V283.994Z" fill="#3F3D56"/>
<path opacity="0.1" d="M324.219 118.331C331.424 118.331 337.265 112.492 337.265 105.29C337.265 98.088 331.424 92.2496 324.219 92.2496C317.014 92.2496 311.173 98.088 311.173 105.29C311.173 112.492 317.014 118.331 324.219 118.331Z" fill="black"/>
<path d="M322.286 119.78C329.492 119.78 335.332 113.941 335.332 106.739C335.332 99.537 329.492 93.6985 322.286 93.6985C315.081 93.6985 309.24 99.537 309.24 106.739C309.24 113.941 315.081 119.78 322.286 119.78Z" fill="#37B9E8"/>
<path d="M257.056 89.8347H238.695V96.5964H257.056V89.8347Z" fill="#3F3D56"/>
<path d="M267.203 154.071H248.842V160.833H267.203V154.071Z" fill="#3F3D56"/>
<path d="M337.748 179.186H248.842V166.629H337.748V179.186ZM249.808 178.22H336.782V167.595H249.808V178.22Z" fill="#3F3D56"/>
<path d="M332.917 206.716H244.976V218.308H332.917V206.716Z" fill="#F0F0F0"/>
<path d="M267.203 190.778H248.842V197.54H267.203V190.778Z" fill="#3F3D56"/>
<path d="M337.748 215.893H248.842V203.335H337.748V215.893ZM249.808 214.927H336.782V204.301H249.808V214.927Z" fill="#3F3D56"/>
<path d="M323.736 241.491H262.854V227.968H323.736V241.491ZM263.821 240.525H322.77V228.934H263.821V240.525Z" fill="#3F3D56"/>
<path d="M335.333 174.357C335.332 175.351 335.025 176.321 334.453 177.134C333.881 177.948 333.072 178.565 332.136 178.901C331.2 179.238 330.183 179.277 329.223 179.015C328.264 178.752 327.409 178.2 326.775 177.433L326.77 177.428C326.309 176.868 325.979 176.211 325.806 175.506C325.633 174.801 325.621 174.067 325.772 173.357C325.922 172.646 326.23 171.979 326.674 171.405C327.118 170.83 327.685 170.363 328.335 170.038C328.984 169.713 329.698 169.538 330.424 169.527C331.15 169.516 331.87 169.669 332.528 169.974C333.187 170.279 333.769 170.728 334.23 171.289C334.692 171.849 335.02 172.507 335.192 173.212C335.192 173.213 335.193 173.213 335.193 173.214C335.193 173.214 335.193 173.215 335.194 173.215C335.194 173.216 335.195 173.216 335.195 173.216C335.196 173.217 335.197 173.217 335.197 173.217C335.287 173.59 335.332 173.973 335.333 174.357Z" fill="#37B9E8"/>
<path opacity="0.1" d="M335.332 174.357C335.332 175.351 335.025 176.321 334.453 177.134C333.881 177.948 333.072 178.565 332.136 178.901C331.2 179.238 330.183 179.277 329.223 179.015C328.264 178.752 327.409 178.2 326.775 177.433L326.77 177.428C326.681 177.055 326.636 176.672 326.635 176.288C326.635 175.294 326.942 174.324 327.514 173.511C328.087 172.697 328.896 172.08 329.832 171.744C330.768 171.407 331.785 171.368 332.744 171.63C333.704 171.893 334.559 172.445 335.192 173.212C335.192 173.213 335.192 173.213 335.193 173.214C335.193 173.214 335.193 173.215 335.194 173.215C335.194 173.216 335.195 173.216 335.195 173.216C335.196 173.217 335.197 173.217 335.197 173.217C335.286 173.59 335.332 173.973 335.332 174.357Z" fill="black"/>
<path d="M332.433 182.084C335.102 182.084 337.265 179.922 337.265 177.254C337.265 174.587 335.102 172.425 332.433 172.425C329.765 172.425 327.602 174.587 327.602 177.254C327.602 179.922 329.765 182.084 332.433 182.084Z" fill="#37B9E8"/>
<path d="M335.333 211.063C335.332 212.058 335.025 213.028 334.453 213.841C333.881 214.654 333.072 215.271 332.136 215.608C331.2 215.944 330.183 215.984 329.223 215.721C328.264 215.459 327.409 214.906 326.775 214.14L326.77 214.135C326.309 213.575 325.979 212.918 325.806 212.213C325.633 211.508 325.621 210.773 325.772 210.063C325.922 209.353 326.23 208.686 326.674 208.111C327.118 207.537 327.685 207.07 328.335 206.745C328.984 206.42 329.698 206.245 330.424 206.234C331.15 206.223 331.87 206.375 332.528 206.68C333.187 206.985 333.769 207.435 334.23 207.995C334.692 208.556 335.02 209.213 335.192 209.919C335.192 209.919 335.193 209.92 335.193 209.92C335.193 209.921 335.193 209.922 335.194 209.922C335.194 209.922 335.195 209.923 335.195 209.923C335.196 209.923 335.197 209.923 335.197 209.923C335.287 210.297 335.332 210.679 335.333 211.063Z" fill="#37B9E8"/>
<path opacity="0.1" d="M335.332 211.063C335.332 212.058 335.025 213.028 334.453 213.841C333.881 214.654 333.072 215.271 332.136 215.608C331.2 215.944 330.183 215.984 329.223 215.721C328.264 215.459 327.409 214.906 326.775 214.14L326.77 214.135C326.681 213.762 326.636 213.379 326.635 212.995C326.635 212.001 326.942 211.031 327.514 210.217C328.087 209.404 328.896 208.787 329.832 208.45C330.768 208.114 331.785 208.074 332.744 208.337C333.704 208.6 334.559 209.152 335.192 209.919C335.192 209.919 335.192 209.92 335.193 209.92C335.193 209.921 335.193 209.922 335.194 209.922C335.194 209.922 335.195 209.923 335.195 209.923C335.196 209.923 335.197 209.923 335.197 209.923C335.286 210.297 335.332 210.679 335.332 211.063Z" fill="black"/>
<path d="M332.433 218.791C335.102 218.791 337.265 216.629 337.265 213.961C337.265 211.294 335.102 209.131 332.433 209.131C329.765 209.131 327.602 211.294 327.602 213.961C327.602 216.629 329.765 218.791 332.433 218.791Z" fill="#37B9E8"/>
<path d="M251.258 23.1832H226.132V48.2982H251.258V23.1832Z" fill="#F0F0F0"/>
<path d="M324.219 41.5365C323.072 41.5365 321.951 41.1965 320.998 40.5597C320.044 39.9228 319.301 39.0177 318.862 37.9586C318.423 36.8996 318.309 35.7342 318.532 34.61C318.756 33.4857 319.308 32.453 320.119 31.6424C320.93 30.8319 321.963 30.2799 323.088 30.0563C324.213 29.8326 325.379 29.9474 326.438 30.3861C327.498 30.8247 328.403 31.5676 329.04 32.5207C329.677 33.4738 330.017 34.5944 330.017 35.7407C330.016 37.2773 329.404 38.7505 328.317 39.837C327.23 40.9236 325.756 41.5347 324.219 41.5365ZM324.219 30.9109C323.264 30.9109 322.329 31.1941 321.535 31.7248C320.74 32.2555 320.121 33.0099 319.755 33.8924C319.389 34.7749 319.294 35.746 319.48 36.6829C319.667 37.6198 320.127 38.4804 320.803 39.1559C321.478 39.8313 322.339 40.2913 323.276 40.4777C324.214 40.6641 325.185 40.5684 326.068 40.2029C326.951 39.8373 327.706 39.2182 328.237 38.424C328.768 37.6297 329.051 36.6959 329.051 35.7407C329.05 34.4602 328.54 33.2325 327.634 32.3271C326.728 31.4216 325.5 30.9123 324.219 30.9109Z" fill="#3F3D56"/>
<path d="M196.658 122.194H184.095V109.637H196.658V122.194ZM185.061 121.229H195.691V110.603H185.061V121.229Z" fill="#3F3D56"/>
<path d="M388 215.893H375.437V203.335H388V215.893ZM376.404 214.927H387.034V204.301H376.404V214.927Z" fill="#3F3D56"/>
<path d="M140.126 131.693L142.282 132.854L149.618 136.806L161.461 143.184L168.362 130.384C169.012 129.181 169.419 127.862 169.558 126.503C169.698 125.143 169.567 123.769 169.175 122.459C168.782 121.15 168.135 119.931 167.271 118.871C166.407 117.812 165.342 116.934 164.137 116.286C161.563 114.897 158.615 114.36 155.716 114.753C152.817 115.147 150.118 116.449 148.008 118.474L148.004 118.478C146.966 119.474 146.09 120.627 145.407 121.894L140.126 131.693Z" fill="#2F2E41"/>
<path d="M172.45 262.229L171.003 278.138L165.577 278.861L161.96 260.782L172.45 262.229Z" fill="#FFB8B8"/>
<path d="M164.13 278.861C164.13 278.861 171.003 275.245 172.45 278.138C172.45 278.138 171.365 286.816 175.705 287.9C180.046 288.985 181.855 296.578 175.705 297.301C169.556 298.025 165.577 295.855 163.407 295.855C161.236 295.855 163.407 288.262 163.407 288.262L164.13 278.861Z" fill="#2F2E41"/>
<path d="M128.681 262.229L130.128 278.138L135.554 278.861L139.171 260.782L128.681 262.229Z" fill="#FFB8B8"/>
<path d="M137 278.861C137 278.861 130.128 275.245 128.681 278.138C128.681 278.138 129.766 286.816 125.425 287.9C121.084 288.985 119.276 296.578 125.425 297.301C131.575 298.025 135.554 295.855 137.724 295.855C139.894 295.855 137.724 288.262 137.724 288.262L137 278.861Z" fill="#2F2E41"/>
<path d="M158.342 134.593C163.537 134.593 167.747 130.384 167.747 125.192C167.747 120 163.537 115.791 158.342 115.791C153.148 115.791 148.938 120 148.938 125.192C148.938 130.384 153.148 134.593 158.342 134.593Z" fill="#FFB8B8"/>
<path d="M128.319 143.632L135.915 155.564L144.958 154.841L159.789 155.926C159.789 155.926 161.189 153.127 162.332 150.405C162.958 149.045 163.439 147.623 163.768 146.163C164.13 143.632 159.066 141.101 159.066 141.101C159.066 141.101 158.867 141.065 158.534 140.986C158.093 140.881 157.413 140.707 156.668 140.454C154.986 139.883 152.964 138.914 152.555 137.485C151.831 134.954 157.257 131.339 157.257 131.339L150.746 125.192C150.746 125.192 144.962 133.223 137.937 135.052C137.53 135.16 137.117 135.244 136.7 135.305C136.679 135.309 136.66 135.312 136.639 135.316C129.042 136.401 128.319 143.632 128.319 143.632Z" fill="#FFB8B8"/>
<path d="M132.298 140.378L128.319 143.632C128.319 143.632 125.063 159.18 126.149 163.519C127.234 167.858 125.787 171.835 125.787 172.558C125.787 173.281 122.531 200.399 122.531 200.399C122.531 200.399 116.02 214.862 122.893 213.416C129.766 211.97 127.234 197.507 127.234 197.507L135.554 172.197V150.864L132.298 140.378Z" fill="#FFB8B8"/>
<path d="M160.875 143.271L163.768 145.44L165.215 175.812L176.067 201.846C176.067 201.846 184.025 214.501 178.961 214.862C173.897 215.224 170.641 201.846 170.641 201.846L160.875 176.897L159.428 152.672L160.875 143.271Z" fill="#FFB8B8"/>
<path d="M142.788 145.44C142.788 145.44 150.023 150.502 161.598 148.694C161.598 148.694 164.854 155.203 163.045 158.818C161.236 162.434 165.215 171.112 165.939 172.197C166.662 173.281 174.982 195.699 177.876 219.924C180.77 244.15 188.728 260.782 181.855 262.952C174.982 265.121 160.875 267.652 159.428 265.483C157.981 263.313 155.81 209.439 155.81 209.439L151.831 230.049C151.831 230.049 157.257 265.121 153.278 265.844C149.299 266.568 124.34 264.398 125.063 260.059C125.787 255.72 133.021 232.941 133.021 232.941C133.021 232.941 132.66 187.383 139.894 178.705C139.894 178.705 142.788 174.004 138.809 167.858C134.83 161.711 135.192 151.948 135.192 151.948C135.192 151.948 138.086 151.948 142.788 145.44Z" fill="#2F2E41"/>
<path d="M136.7 135.305L142.788 148.694L144.235 147.971L137.937 135.052L136.7 135.305Z" fill="#2F2E41"/>
<path d="M156.668 140.454L161.236 150.502L162.332 150.405L161.96 148.694L158.534 140.986C158.093 140.881 157.413 140.707 156.668 140.454Z" fill="#2F2E41"/>
<path d="M142.282 132.854C142.63 133.972 143.3 134.963 144.209 135.703C145.117 136.442 146.224 136.897 147.391 137.011C148.557 137.124 149.731 136.891 150.765 136.341C151.8 135.79 152.649 134.947 153.206 133.917C148.63 127.936 152.555 124.18 159.988 121.338C160.548 120.299 160.786 119.117 160.672 117.943C160.558 116.768 160.097 115.654 159.348 114.742C157.299 114.48 155.218 114.68 153.255 115.325C151.293 115.971 149.5 117.047 148.008 118.474L148.004 118.477L142.723 128.269C142.347 128.965 142.114 129.729 142.038 130.517C141.962 131.304 142.045 132.099 142.282 132.854Z" fill="#2F2E41"/>
<path d="M152.736 128.446C153.435 128.446 154.002 127.475 154.002 126.277C154.002 125.079 153.435 124.107 152.736 124.107C152.036 124.107 151.47 125.079 151.47 126.277C151.47 127.475 152.036 128.446 152.736 128.446Z" fill="#FFB8B8"/>
<path d="M156.508 122.737L167.382 127.661L169.375 123.265C169.032 121.658 168.313 120.155 167.277 118.879L159.793 115.491L156.508 122.737Z" fill="#2F2E41"/>
<path d="M182.645 219.757C185.314 219.757 187.477 217.594 187.477 214.927C187.477 212.26 185.314 210.097 182.645 210.097C179.977 210.097 177.813 212.26 177.813 214.927C177.813 217.594 179.977 219.757 182.645 219.757Z" fill="#37B9E8"/>
<path d="M27.5207 248.469C29.2647 248.469 30.6785 247.055 30.6785 245.312C30.6785 243.569 29.2647 242.156 27.5207 242.156C25.7767 242.156 24.3629 243.569 24.3629 245.312C24.3629 247.055 25.7767 248.469 27.5207 248.469Z" fill="#FF6584"/>
<path d="M43.4749 261.763H42.5085V297.702H43.4749V261.763Z" fill="#3F3D56"/>
<path d="M42.9918 266.845C45.7999 266.845 48.0763 264.57 48.0763 261.763C48.0763 258.956 45.7999 256.681 42.9918 256.681C40.1837 256.681 37.9073 258.956 37.9073 261.763C37.9073 264.57 40.1837 266.845 42.9918 266.845Z" fill="#3F3D56"/>
<path d="M42.9918 283.913C42.9918 283.913 42.2654 268.297 27.3751 270.113L42.9918 283.913Z" fill="#3F3D56"/>
</svg>
